<svg xmlns="http://www.w3.org/2000/svg" width="44" height="44" viewBox="0 0 44 44"><defs><style>.a{fill:rgba(255,255,255,0);opacity:0.2;}.b{fill:#b080e8;stroke:#b080e8;}</style></defs><g transform="translate(-97 -367)"><rect class="a" width="44" height="44" transform="translate(97 367)"/><path class="b" d="M33.483,16.742A16.742,16.742,0,1,0,5.434,29.075l-.016.014.543.458c.035.03.074.054.109.083.289.239.587.466.892.686.1.071.2.142.3.212q.488.336,1,.638c.074.044.149.086.224.129.373.212.754.413,1.145.6l.086.039a16.591,16.591,0,0,0,4.049,1.281l.112.02c.441.076.886.137,1.338.178l.165.013c.449.037.9.061,1.364.061s.906-.024,1.353-.06l.17-.013q.671-.061,1.326-.175l.114-.021A16.59,16.59,0,0,0,23.7,31.964l.139-.063q.563-.265,1.1-.57.134-.076.267-.154c.328-.193.65-.394.962-.609.113-.077.223-.158.334-.238.267-.192.53-.391.785-.6.057-.046.117-.085.173-.132l.557-.465L28,29.121A16.7,16.7,0,0,0,33.483,16.742Zm-32.266,0A15.524,15.524,0,1,1,27.037,28.347a4.563,4.563,0,0,0-.544-.327l-5.155-2.577a1.349,1.349,0,0,1-.75-1.213v-1.8c.119-.147.245-.314.376-.5a12.406,12.406,0,0,0,1.593-3.119,2.209,2.209,0,0,0,1.269-2V14.653a2.215,2.215,0,0,0-.54-1.442V10.37A4.91,4.91,0,0,0,22.14,6.8C21.018,5.519,19.2,4.87,16.742,4.87s-4.276.648-5.4,1.929a4.91,4.91,0,0,0-1.146,3.57V13.21a2.218,2.218,0,0,0-.54,1.442V16.81a2.215,2.215,0,0,0,.816,1.717,11.439,11.439,0,0,0,1.883,3.89v1.762a1.358,1.358,0,0,1-.707,1.192L6.835,28a4.4,4.4,0,0,0-.458.29A15.487,15.487,0,0,1,1.218,16.742ZM25.849,29.3q-.32.232-.65.447c-.1.066-.2.132-.3.2-.287.178-.58.347-.878.505-.066.035-.132.068-.2.1a15.512,15.512,0,0,1-2.123.9l-.077.026q-.573.19-1.159.336h0c-.394.1-.794.178-1.2.245l-.033.006c-.378.061-.759.106-1.141.139-.068.006-.135.01-.2.015-.378.029-.758.047-1.14.047s-.771-.019-1.154-.047c-.066,0-.133-.009-.2-.015-.386-.034-.77-.08-1.151-.142l-.051-.009a15.467,15.467,0,0,1-2.368-.591l-.072-.024q-.574-.2-1.134-.434l-.008,0c-.352-.152-.7-.32-1.038-.5-.044-.023-.089-.045-.133-.069-.311-.166-.615-.346-.916-.533q-.133-.084-.265-.17c-.276-.181-.549-.369-.815-.568L7.359,29.1l.058-.033,4.814-2.626a2.574,2.574,0,0,0,1.342-2.261V21.986l-.14-.169a10.165,10.165,0,0,1-1.827-3.784l-.055-.241-.208-.135a1.009,1.009,0,0,1-.468-.847V14.652a.994.994,0,0,1,.339-.745l.2-.181V10.335l-.005-.08a3.667,3.667,0,0,1,.85-2.654c.88-1,2.389-1.513,4.483-1.513s3.589.505,4.472,1.5a3.728,3.728,0,0,1,.86,2.667l-.005,3.471.2.181a1,1,0,0,1,.339.745v2.158a1.017,1.017,0,0,1-.719.959l-.3.093-.1.3a11.263,11.263,0,0,1-1.52,3.063c-.16.225-.315.425-.448.578l-.151.172V24.23a2.56,2.56,0,0,0,1.423,2.3l5.155,2.577.1.051C25.981,29.209,25.914,29.255,25.849,29.3Z" transform="translate(102.5 372.5)"/></g></svg>