<svg xmlns="http://www.w3.org/2000/svg" width="44" height="44" viewBox="0 0 44 44"><defs><style>.a{fill:rgba(255,255,255,0);opacity:0.2;}.b{fill:#b080e8;}</style></defs><g transform="translate(-205 -367)"><rect class="a" width="44" height="44" transform="translate(205 367)"/><g transform="translate(209 375)"><path class="b" d="M31.257,57.75H4.354A4.357,4.357,0,0,0,0,62.1V80.491a4.357,4.357,0,0,0,4.354,4.354h26.9A4.357,4.357,0,0,0,35.6,80.491V62.111A4.353,4.353,0,0,0,31.257,57.75Zm2.365,22.741a2.367,2.367,0,0,1-2.365,2.365H4.354a2.367,2.367,0,0,1-2.365-2.365V62.111a2.367,2.367,0,0,1,2.365-2.365h26.9a2.367,2.367,0,0,1,2.365,2.365v18.38Z" transform="translate(0 -57.75)"/><path class="b" d="M74.1,118.453l8.707-7.809a1,1,0,1,0-1.333-1.481L69.465,119.941l-2.343-2.092c-.007-.007-.015-.015-.015-.022a1.473,1.473,0,0,0-.162-.14l-9.532-8.531a1,1,0,0,0-1.326,1.488l8.811,7.875-8.774,8.214a1,1,0,0,0-.044,1.407,1.017,1.017,0,0,0,.729.317,1,1,0,0,0,.678-.265l8.906-8.332,2.416,2.158a.992.992,0,0,0,1.326-.007l2.483-2.225,8.855,8.413a1,1,0,0,0,1.407-.037,1,1,0,0,0-.037-1.407Z" transform="translate(-51.645 -105.134)"/></g></g></svg>