<svg xmlns="http://www.w3.org/2000/svg" width="44" height="44" viewBox="0 0 44 44"><defs><style>.a{fill:rgba(255,255,255,0);opacity:0.2;}.b{fill:#fff;}</style></defs><g transform="translate(-151 -367)"><rect class="a" width="44" height="44" transform="translate(151 367)"/><g transform="translate(155 360.989)"><path class="b" d="M-1943.125-458.285a.971.971,0,0,1-.393-.962l1.858-11.03-8.036-7.789a.973.973,0,0,1-.256-1.005.991.991,0,0,1,.795-.671l11.074-1.647,4.918-10.047a.981.981,0,0,1,.882-.553.987.987,0,0,1,.881.546l4.983,10.018,11.075,1.573a.993.993,0,0,1,.794.671.965.965,0,0,1-.263,1.013l-7.985,7.832,1.916,10.966a.778.778,0,0,1,.029.226.988.988,0,0,1-.983.983,1,1,0,0,1-.452-.109l-9.916-5.18-9.887,5.239a.935.935,0,0,1-.459.116A.976.976,0,0,1-1943.125-458.285Z" transform="translate(1950 503)"/></g></g></svg>