<svg xmlns="http://www.w3.org/2000/svg" width="150.498" height="150" viewBox="0 0 150.498 150"><defs><style>.a{fill:rgba(255,255,255,0);opacity:0.2;}.b{fill:#ffc524;}</style></defs><g transform="translate(-40 -256)"><rect class="a" width="150" height="150" transform="translate(40 256)"/><g transform="translate(133.101 340.08)"><path class="b" d="M11.116,54.5a1.57,1.57,0,0,1-.636-1.556l3-17.835L.49,22.512a1.574,1.574,0,0,1-.413-1.625A1.6,1.6,0,0,1,1.361,19.8L19.268,17.14,27.219.895A1.587,1.587,0,0,1,30.07.883l8.057,16.2,17.908,2.544a1.606,1.606,0,0,1,1.283,1.084,1.561,1.561,0,0,1-.425,1.639L43.983,35.011l3.1,17.73a1.258,1.258,0,0,1,.047.365A1.6,1.6,0,0,1,45.539,54.7a1.617,1.617,0,0,1-.731-.176L28.775,46.143,12.788,54.614a1.512,1.512,0,0,1-.742.188A1.577,1.577,0,0,1,11.116,54.5Z" transform="translate(0 11.011)"/></g></g></svg>