<svg xmlns="http://www.w3.org/2000/svg" width="45" height="45" viewBox="0 0 45 45"><defs><style>.a{fill:rgba(255,255,255,0);opacity:0.12;}.b{fill:#8d5bc7;}.c{fill:#fff;}</style></defs><g transform="translate(-534 -366)"><rect class="a" width="45" height="45" transform="translate(534 366)"/><path class="b" d="M13.593,0A13.593,13.593,0,1,0,27.186,13.593,13.554,13.554,0,0,0,13.593,0Z" transform="translate(556.223 369) rotate(45)"/><path class="c" d="M-1793.576-121.8v-6.074h-6.074a1.35,1.35,0,0,1-1.35-1.35,1.35,1.35,0,0,1,1.35-1.35h6.074v-6.074a1.35,1.35,0,0,1,1.35-1.35,1.35,1.35,0,0,1,1.35,1.35v6.074h6.074a1.35,1.35,0,0,1,1.35,1.35,1.35,1.35,0,0,1-1.35,1.35h-6.074v6.074a1.35,1.35,0,0,1-1.35,1.35A1.35,1.35,0,0,1-1793.576-121.8Z" transform="translate(1732.327 1746.88) rotate(45)"/></g></svg>