<svg xmlns="http://www.w3.org/2000/svg" width="44" height="44" viewBox="0 0 44 44"><defs><style>.a{fill:rgba(255,255,255,0);opacity:0.2;}.b{fill:#b080e8;}</style></defs><g transform="translate(-151 -367)"><rect class="a" width="44" height="44" transform="translate(151 367)"/><g transform="translate(155 360.989)"><path class="b" d="M35.45,23.82a.99.99,0,0,0-.794-.67L23.581,21.575,18.6,11.557a.988.988,0,0,0-.882-.546h0a.981.981,0,0,0-.882.554L11.916,21.612.842,23.259a.99.99,0,0,0-.794.67A.973.973,0,0,0,.3,24.934l8.036,7.789L6.481,43.754A.989.989,0,0,0,7.45,44.9a.935.935,0,0,0,.459-.117L17.8,39.55l9.916,5.18a1.006,1.006,0,0,0,.452.109h0a.989.989,0,0,0,.984-.984.769.769,0,0,0-.029-.226L27.2,32.665l7.985-7.832A.963.963,0,0,0,35.45,23.82Zm-9.982,7.8a.972.972,0,0,0-.277.874l1.668,9.566-8.612-4.5a1,1,0,0,0-.918,0L8.747,42.114l1.61-9.581a.983.983,0,0,0-.284-.867L3.108,24.905l9.61-1.428a.976.976,0,0,0,.736-.539l4.27-8.721,4.328,8.7a1,1,0,0,0,.743.539l9.617,1.37Z"/></g></g></svg>