<svg xmlns="http://www.w3.org/2000/svg" width="45" height="45" viewBox="0 0 45 45"><defs><style>.a{fill:rgba(255,255,255,0);opacity:0.12;}.b{fill:#fff;}</style></defs><g transform="translate(-369 -367)"><rect class="a" width="45" height="45" transform="translate(369 367)"/><path class="b" d="M8.177,27.9A7,7,0,0,1,3.229,15.962L17.7,1.492a5.182,5.182,0,0,1,7.483.219A5.182,5.182,0,0,1,25.4,9.193L11.808,22.787a3.276,3.276,0,0,1-4.633-4.633l9.208-9.208a.8.8,0,1,1,1.124,1.124L8.3,19.279a1.685,1.685,0,1,0,2.384,2.384L24.277,8.069a3.629,3.629,0,0,0-.219-5.234,3.629,3.629,0,0,0-5.234-.219L4.354,17.087A5.406,5.406,0,0,0,12,24.732l14.47-14.47a.8.8,0,0,1,1.124,1.124l-14.47,14.47A6.947,6.947,0,0,1,8.177,27.9Z" transform="translate(376.813 376)"/></g></svg>