<svg xmlns="http://www.w3.org/2000/svg" width="45.779" height="45.779" viewBox="0 0 45.779 45.779"><defs><style>.a{fill:#fff;fill-rule:evenodd;}.b{fill:rgba(255,255,255,0);opacity:0.11;}</style></defs><g transform="matrix(1, 0.017, -0.017, 1, -251.788, -370.464)"><path class="a" d="M38.924,28.641a2.79,2.79,0,0,0,2.813,2.085H52.389A2.79,2.79,0,0,0,55.2,28.641l2.1-20.447H36.821ZM51.16,11.266a1.024,1.024,0,0,1,2.048,0L52.184,26.629a1.024,1.024,0,1,1-2.048,0Zm-5.121,0a1.024,1.024,0,0,1,2.048,0V26.629a1.024,1.024,0,1,1-2.048,0Zm-4.1-1.024a1.024,1.024,0,0,1,1.024,1.024l1.024,15.363a1.024,1.024,0,0,1-2.048,0L40.918,11.266A1.024,1.024,0,0,1,41.942,10.242ZM56.691,4.1H52.184V2.048C52.184.495,51.682,0,50.136,0H43.991a1.792,1.792,0,0,0-2.048,2.048V4.1H37.436A1.589,1.589,0,0,0,35.8,5.636a1.589,1.589,0,0,0,1.639,1.537H56.691a1.589,1.589,0,0,0,1.639-1.537A1.59,1.59,0,0,0,56.691,4.1Zm-6.555,0H43.991V2.048h6.145V4.1Z" transform="translate(234.203 373)"/><rect class="b" width="45" height="45" transform="translate(259 366)"/></g></svg>