<svg xmlns="http://www.w3.org/2000/svg" width="45" height="45" viewBox="0 0 45 45"><defs><style>.a{fill:rgba(255,255,255,0);opacity:0.12;}.b{fill:#999;}</style></defs><g transform="translate(-314 -366)"><rect class="a" width="45" height="45" transform="translate(314 366)"/><g transform="translate(320.75 375)"><path class="b" d="M211,240h5.592v1.864H211Zm0,0" transform="translate(-197.891 -225.089)"/><path class="b" d="M25.807,89.376H20.565v.932a.932.932,0,0,1-.932.932H12.177a.932.932,0,0,1-.932-.932v-.932H6a2.793,2.793,0,0,1-2.652-1.911L0,77.41V97.763a2.8,2.8,0,0,0,2.8,2.8H29.014a2.8,2.8,0,0,0,2.8-2.8V77.411L28.459,87.464a2.792,2.792,0,0,1-2.652,1.911Zm0,0" transform="translate(0 -72.601)"/><path class="b" d="M43.838,0H36.383a2.8,2.8,0,0,0-2.8,2.8v.932H25.809l3.515,10.546a.932.932,0,0,0,.885.637h5.242v-.932a.932.932,0,0,1,.932-.932h7.455a.932.932,0,0,1,.932.932v.932h5.242a.932.932,0,0,0,.885-.637L54.412,3.728H46.634V2.8a2.8,2.8,0,0,0-2.8-2.8ZM35.451,3.728V2.8a.932.932,0,0,1,.932-.932h7.455a.932.932,0,0,1,.932.932v.932Zm0,0" transform="translate(-24.206)"/></g></g></svg>