<svg xmlns="http://www.w3.org/2000/svg" width="45" height="45" viewBox="0 0 45 45"><defs><style>.a{fill:rgba(255,255,255,0);}.b{fill:#fff;}</style></defs><g transform="translate(-479 -366)"><rect class="a" width="45" height="45" transform="translate(479 366)"/><path class="b" d="M26.831,24.762l-6.47-6.729a10.972,10.972,0,1,0-8.4,3.92,10.859,10.859,0,0,0,6.288-1.986l6.519,6.78a1.432,1.432,0,1,0,2.064-1.985ZM11.96,2.863a8.113,8.113,0,1,1-8.113,8.113A8.122,8.122,0,0,1,11.96,2.863Z" transform="translate(487.016 375)"/><path class="b" d="M-1795.7-126.427v-4.34h-4.34a.965.965,0,0,1-.965-.965.964.964,0,0,1,.965-.964h4.34v-4.34a.964.964,0,0,1,.964-.965.965.965,0,0,1,.965.965v4.34h4.34a.964.964,0,0,1,.965.964.965.965,0,0,1-.965.965h-4.34v4.34a.965.965,0,0,1-.965.965A.964.964,0,0,1-1795.7-126.427Z" transform="translate(2293.7 517.5)"/></g></svg>